<svg xmlns="http://www.w3.org/2000/svg" width="749" height="225" fill="none" viewBox="0 0 270 81"><path fill="#FFF" fill-rule="evenodd" d="M57.75 80V45.4c.04-2.94-.14-14.35-8.29-20.75-.77-.6-1.78-1.37-3.38-2.22-9.41-5.01-21.97-4.69-29.69-3.91a.97.97 0 0 1-1.07-.97V.94c0-.51-.42-.94-.94-.94H.94C.42 0 0 .42 0 .94v79.05c0 .52.42.94.94.94h13.42c.52 0 .94-.42.94-.94V47.47q.029-3.517.055-7.03t.055-7.03c.01-.48.36-.89.84-.96 5.39-.8 10.14-.84 13.15-.38 3.92.6 6.06 1.38 8.34 3.3 2.97 2.49 4.7 6.58 4.7 12.1V80c0 .52.42.94.94.94h13.43c.52 0 .94-.42.94-.94M217.86.06h-13.3V.05c-.56 0-1.01.45-1.01 1.01V80c0 .56.45 1.01 1.01 1.01h13.3c.56 0 1.01-.45 1.01-1.01V1.07c0-.56-.45-1.01-1.01-1.01M63.97 49.66c0 19.03 12.8 31.28 30.41 31.28l-.01.01c14.3 0 26.22-10.64 28.97-21.7.2-.81-.42-1.59-1.25-1.59h-14.13c-.49 0-.93.29-1.15.73-2.45 5-6.56 8.82-12.82 8.82-7.22 0-13.02-3.53-14.31-11.45-.13-.78.48-1.5 1.27-1.5h41.74c.64 0 1.19-.47 1.27-1.1.21-1.61.28-3.21.28-4.81 0-18.05-11.92-29.97-29.86-29.97S63.97 30.63 63.97 49.66m43.02-5.69H81.16c-.83 0-1.44-.77-1.26-1.57 1.67-7.34 7.18-11.45 14.04-11.45 7.39 0 13.43 4.43 14.33 11.57.09.77-.51 1.45-1.28 1.45m85.3-24.61h-13.88a.77.77 0 0 0-.77.77v5.71c0 .69-.86 1.03-1.32.52-3.81-4.34-10.05-7.97-18.7-7.97-15.42 0-27.67 12.14-27.67 31.06s12.25 31.5 27.56 31.5c8.56 0 14.95-3.63 18.8-8.12.45-.53 1.32-.19 1.32.51v6.85c0 .42.34.77.77.77h13.89c.42 0 .77-.34.77-.77V20.13a.77.77 0 0 0-.77-.77m-32.44 46.72c-9.92 0-16.93-7.3-16.93-16.61s7-16.61 16.93-16.61 16.54 7.3 16.54 16.61-7.01 16.61-16.54 16.61m101.67-35.55.02-9.13.01-.01c0-.32-.26-.59-.59-.59h-17.84a.78.78 0 0 1-.8-.78c-.01-2.04.55-3.38 1.02-4.18 2.45-4.18 9.33-5.89 17.13-3.75.5.13 1.01-.23 1.01-.76l.06-8.71c0-.38-.27-.72-.64-.8-12.83-2.72-24.59.96-29.47 9.03-1.03 1.69-2.44 4.7-2.54 9.25-.01.42-.34.77-.77.79l-1.56.04c-.43.02-.77.37-.77.8v8.67c0 .4.32.72.72.72h2.11c.44 0 .8.36.8.8-.023 8.83-.033 18.182-.042 27.467v.038c-.008 7.054-.015 14.068-.028 20.785-.01.44.35.79.79.79h13.75a.8.8 0 0 0 .8-.79c.017-8.741.018-17.856.019-26.936v-.05c.001-7.263.002-14.504.011-21.514 0-.33.26-.59.59-.59h15.62c.33 0 .59-.26.59-.59M261.45 80a8.36 8.36 0 1 0 0-16.72 8.36 8.36 0 0 0 0 16.72" clip-rule="evenodd"/></svg>